<svg id="Camada_1" data-name="Camada 1" xmlns="http://www.w3.org/2000/svg" viewBox="0 0 512 512"><defs><style>.cls-1{fill:#fff;}</style></defs><path class="cls-1" d="M502.29,159.7l-234-156c-8-4.91-16.52-5-24.58,0l-234,156A22.38,22.38,0,0,0,0,178V334a22.34,22.34,0,0,0,9.72,18.28l234,156c8,4.91,16.52,5,24.58,0l234-156A22.36,22.36,0,0,0,512,334V178a22.38,22.38,0,0,0-9.71-18.29ZM278,63.13,450.29,178l-76.86,51.43L278,165.7Zm-44,0V165.7l-95.43,63.72L61.71,178Zm-190,156L99.14,256,44,292.85V219.13ZM234,448.85,61.71,334l76.86-51.43L234,346.27ZM256,308l-77.71-52L256,204l77.71,52Zm22,140.86V346.27l95.43-63.71L450.29,334Zm190-156L412.86,256,468,219.13v73.72Z" transform="translate(0 0)"/></svg>