<svg id="Camada_1" data-name="Camada 1" xmlns="http://www.w3.org/2000/svg" viewBox="0 0 19.95 19.95"><defs><style>.cls-1{fill:#fff;fill-rule:evenodd;}</style></defs><path class="cls-1" d="M20.67,12.49c.44-.37,1.29-.06,1.28.51a8.48,8.48,0,0,1-.13.88,2.56,2.56,0,0,1-.05.27v0A10,10,0,1,1,9.83,2.24h0l.27,0A8.48,8.48,0,0,1,11,2.05c.57,0,.88.84.51,1.28-.12.14-.23.3-.34.45L11.05,4a.22.22,0,0,0-.05.08h0a6.49,6.49,0,0,0,9,9h0L20,13l.19-.12A5.3,5.3,0,0,0,20.67,12.49ZM16.5,16a8.38,8.38,0,0,0,2.66-.43A8,8,0,1,1,8.43,4.84,8.38,8.38,0,0,0,8,7.5,8.51,8.51,0,0,0,16.5,16Z" transform="translate(-2 -2.05)"/></svg>