<svg id="Camada_1" data-name="Camada 1" xmlns="http://www.w3.org/2000/svg" viewBox="0 0 24 24"><defs><style>.cls-1,.cls-2{fill:#fff;}.cls-2{fill-rule:evenodd;}</style></defs><path class="cls-1" d="M12,4a1,1,0,0,1-1-1V1a1,1,0,0,1,2,0V3A1,1,0,0,1,12,4Z"/><path class="cls-1" d="M17.66,6.34a1,1,0,0,1,0-1.41l1.41-1.42a1,1,0,1,1,1.42,1.42L19.07,6.34A1,1,0,0,1,17.66,6.34Z"/><path class="cls-1" d="M21,11a1,1,0,0,0,0,2h2a1,1,0,0,0,0-2Z"/><path class="cls-1" d="M17.66,17.66a1,1,0,0,1,1.41,0l1.42,1.41a1,1,0,1,1-1.42,1.42l-1.41-1.42A1,1,0,0,1,17.66,17.66Z"/><path class="cls-1" d="M12,24a1,1,0,0,1-1-1V21a1,1,0,0,1,2,0v2A1,1,0,0,1,12,24Z"/><path class="cls-2" d="M12,18a6,6,0,1,0-6-6A6,6,0,0,0,12,18Zm0-2a4,4,0,1,0-4-4A4,4,0,0,0,12,16Z"/><path class="cls-1" d="M3.51,3.51a1,1,0,0,1,1.42,0L6.34,4.93A1,1,0,0,1,4.93,6.34L3.51,4.93A1,1,0,0,1,3.51,3.51Z"/><path class="cls-1" d="M3.51,20.49a1,1,0,0,1,0-1.42l1.42-1.41a1,1,0,0,1,1.41,1.41L4.93,20.49A1,1,0,0,1,3.51,20.49Z"/><path class="cls-1" d="M0,12a1,1,0,0,1,1-1H3a1,1,0,0,1,0,2H1A1,1,0,0,1,0,12Z"/></svg>