<svg id="Camada_1" data-name="Camada 1" xmlns="http://www.w3.org/2000/svg" viewBox="0 0 384 384"><defs><style>.cls-1{fill:#fff;}</style></defs><path class="cls-1" d="M180,0h24c6.53.86,13.1,1.52,19.59,2.63a187.76,187.76,0,0,1,95.25,45.58c33.4,29.72,54.32,66.62,62.21,110.72,1.24,7,2,14,2.95,21.07v24c-.22,1-.48,1.91-.64,2.88-1.54,9.85-2.45,19.84-4.69,29.52-17.11,73.81-79.13,132.11-153.62,144.68-7,1.18-14,2-21.05,2.92H180c-2.45-.31-4.9-.65-7.35-.92-38-4.17-72-18-101.49-42.21C34.37,310.64,11.43,272.05,3,225.08,1.69,218.1,1,211,0,204V180a20.77,20.77,0,0,0,.61-2.9c2.56-32.76,12.67-63,31-90.27,30.8-45.69,73.28-74,127.67-83.91C166.16,1.67,173.1,1,180,0ZM22.23,180.55H90.9c.94-26.56,4.35-52.6,11.3-78.25a13.36,13.36,0,0,0-1.74-.28c-16.62,0-33.23-.07-49.85.09A5.25,5.25,0,0,0,47,104.48a153.05,153.05,0,0,0-19.18,45.7C25.53,160.07,24.11,170.17,22.23,180.55Zm338.63,0c0-1,0-1.64,0-2.26A165.1,165.1,0,0,0,336.66,104a4.87,4.87,0,0,0-3.52-1.86c-6.49-.19-13-.09-19.48-.09h-32c7.1,25.93,10.41,52.07,11.43,78.59ZM102.31,282c-7.13-26-10.42-52.11-11.44-78.43H23.19c0,.68-.1,1.06-.08,1.43a164.3,164.3,0,0,0,24.28,75.1c.63,1,2.57,1.8,3.92,1.82,10.36.15,20.73.08,31.1.08Zm190.77-78.57A345,345,0,0,1,281.72,282h3.75c15.62,0,31.24-.06,46.85.06a5,5,0,0,0,5-2.83A164.16,164.16,0,0,0,357,230.49c1.91-8.82,3.08-17.81,4.64-27.06ZM180.57,102H177c-15.87,0-31.74.09-47.6-.08-2.94,0-4.07.92-4.82,3.63a309.15,309.15,0,0,0-9.7,52.59c-.72,7.4-1,14.84-1.53,22.42h67.22Zm-.09,180V203.49H113.34c.46,6.85.81,13.44,1.38,20A279.1,279.1,0,0,0,125,279.36c.31,1.05,1.79,2.52,2.73,2.53C145.25,282,162.73,282,180.48,282Zm89.79-101.44a5.72,5.72,0,0,0,.25-1.22c-1-25.28-4.4-50.21-11.36-74.6-.67-2.34-1.76-2.79-3.91-2.78-12.62.08-25.24,0-37.87,0H203.47v78.56ZM203.43,281.68a6.11,6.11,0,0,0,1.19.29c17.11,0,34.23,0,51.35.1,2.55,0,2.88-1.45,3.22-3.16,3.07-15.15,6.5-30.24,9-45.49,1.6-9.79,1.78-19.81,2.61-29.9H203.43ZM180.55,79.39V24.91c-16,3.6-44.5,37.55-46,54.48Zm70.19-.07c-4.55-8.34-8.47-16.23-13.05-23.72-6.56-10.74-14.61-20.25-25.52-26.91-2.68-1.64-5.62-2.84-8.69-4.36v55ZM180.65,304.5h-44.5c-.58,0-1.16.11-1.77.17,4.79,20.91,32.05,52.82,46.27,54.21Zm22.86.17v55.09c24.63-11.08,36.06-32.4,46.76-55.09ZM318.71,79.5C299.06,58,276.63,42.56,250.08,33.2,260.08,47,267.64,62,273.82,77.71a3.23,3.23,0,0,0,2.37,1.71C290,79.53,303.81,79.5,318.71,79.5Zm-253.38,0h4.24c12.1,0,24.21-.11,36.31.08,2.85,0,4.12-.9,5.11-3.5a171.5,171.5,0,0,1,22-41,17.06,17.06,0,0,0,1.14-2.36A172.13,172.13,0,0,0,65.33,79.5Zm69.11,271.88a20.53,20.53,0,0,0-1.05-1.93,172.69,172.69,0,0,1-22.59-42c-.92-2.44-2.23-3-4.68-3-11.35.13-22.7.06-34.06.06H65.35A171.25,171.25,0,0,0,134.44,351.38Zm115.68-.59c26.55-9.45,49-24.77,68.54-46.29-14.84,0-28.64,0-42.44.09a3.62,3.62,0,0,0-2.52,2A202.73,202.73,0,0,1,250.12,350.79Z" transform="translate(0 0)"/></svg>